<?xml version="1.0" encoding="utf-8"?>
<!-- Generator: Adobe Illustrator 24.0.1, SVG Export Plug-In . SVG Version: 6.00 Build 0)  -->
<svg version="1.1" id="Layer_1" xmlns="http://www.w3.org/2000/svg" xmlns:xlink="http://www.w3.org/1999/xlink" x="0px" y="0px"
	 viewBox="0 0 256 256" style="enable-background:new 0 0 256 256;" xml:space="preserve">
<style type="text/css">
	.st0{fill:#FFFFFF;}
</style>
<g>
	<g>
		<polygon class="st0" points="217,2 184.9,22.1 184.9,252 217,234.2 		"/>
		<polygon class="st0" points="71.1,4 39,24.2 39,254 71.1,236.3 		"/>
		<polygon class="st0" points="74.6,113.9 88.7,143.4 183.5,143.4 169.2,113.9 		"/>
		<g>
			<polyline class="st0" points="167.1,116.7 167.1,38.7 162.6,38.7 162.6,116.7 			"/>
			<polyline class="st0" points="95.6,219 95.6,141 91.1,141 91.1,219 			"/>
		</g>
	</g>
	<g>
		<path class="st0" d="M120.9,74.3c-9.4,0-18.8,0-28.2,0c-1.3,0-1.6-0.2-1.6-1.5c0-11.7,0-23.5,0-35.2c0-1.2,0.3-1.5,1.6-1.5
			c13.9,0,27.7,0,41.6,0c1.4,0,1.7,0.3,1.7,1.7c0,2.1,0,4.3,0,6.4c0,1.1,0.2,1.3,1.3,1.3c3.9,0,7.9,0,11.8,0c1.4,0,1.6,0.2,1.6,1.6
			c0,1.3,0,2.6,0,3.9c0,0.9-0.3,1.1-1.1,1.2c-1.6,0-3.1,0-4.7,0c-0.9,0-1.2-0.3-1.2-1.2c0-0.6,0-1.2,0-1.8c0-0.8-0.4-1.2-1.2-1.2
			c-1.3,0-2.7,0-4,0c-0.9,0-1.2,0.4-1.2,1.3c0,0.5,0,0.9,0,1.4c0,1.1,0.2,1.3,1.4,1.3c1.3,0,2.5,0,3.8,0c1.1,0,1.4,0.4,1.4,1.5
			c0,1.5,0,3.1,0,4.6c0,0.9,0.2,1.1,1.1,1.1c1.4,0,2.8,0,4.2,0c1.1,0,1.4,0.3,1.4,1.4c0,4.1,0,8.2,0,12.3c0,1.2-0.2,1.4-1.4,1.4
			C139.8,74.3,130.4,74.3,120.9,74.3z"/>
		<path class="st0" d="M146.6,32.4c2.1,0,4.1,0,6.2,0c1,0,1.2,0.2,1.2,1.3c0,2.3,0,4.7,0,7c0,1-0.4,1.4-1.4,1.4c-1.5,0-3,0-4.4,0
			c-2.4,0-4.9,0-7.3,0c-1.4,0-1.7-0.3-1.7-1.6c0-2.3,0-4.5,0-6.8c0-1,0.2-1.2,1.2-1.2C142.5,32.4,144.6,32.4,146.6,32.4z"/>
		<path class="st0" d="M121,82.2c2.9,0,5.7,0,8.6,0c1.1,0,1.8,0.7,1.8,1.7s-0.7,1.7-1.8,1.7c-5.8,0-11.6,0-17.4,0
			c-1,0-1.6-0.7-1.6-1.7c0-1.1,0.5-1.7,1.6-1.7C115.1,82.2,118.1,82.2,121,82.2L121,82.2z"/>
		<path class="st0" d="M155.8,48.9c-0.9,0-1.7,0-2.6,0c-0.8,0-1.2-0.4-1.2-1.1c0-0.8,0-1.6,0-2.5s0.4-1.2,1.3-1.2c1.7,0,3.3,0,5,0
			c0.9,0,1.3,0.3,1.3,1.3c0,0.8,0,1.6,0,2.3c0,0.9-0.4,1.2-1.3,1.2C157.5,49,156.6,48.9,155.8,48.9z"/>
		<path class="st0" d="M155.7,58.4c-0.9,0-1.7,0-2.6,0c-0.7,0-1-0.3-1.1-1c0-0.8,0-1.7,0-2.5s0.4-1.2,1.2-1.2c1.7,0,3.4,0,5.1,0
			c0.8,0,1.1,0.4,1.1,1.3c0,0.8,0,1.6,0,2.4c0,0.8-0.3,1.1-1.1,1.1C157.5,58.4,156.6,58.4,155.7,58.4z"/>
		<path class="st0" d="M169.5,31.5c-0.6,0-1.1,0-1.7,0c-0.9-0.1-1.2-0.6-1.1-2.3c0-0.9,0.4-1.3,1.2-1.3c1.1,0,2.1,0,3.2,0
			c0.8,0,1.1,0.3,1.2,1.2c0,0.4,0,0.9,0,1.3c0,0.7-0.3,1-1,1.1C170.6,31.5,170.1,31.5,169.5,31.5L169.5,31.5z"/>
		<path class="st0" d="M171.1,44.1c-0.6,0-1.1,0-1.7,0c-0.7,0-1-0.3-1-1c0-0.5,0-1,0-1.5c0-0.7,0.4-1.1,1.1-1.1c1.1-0.1,2.2,0,3.3,0
			c0.8,0,1.1,0.4,1.2,1.1c0,0,0,0,0,0.1c0.1,2.4-0.2,2.4-2.1,2.3C171.6,44.1,171.3,44.1,171.1,44.1z"/>
		<path class="st0" d="M120.9,76c1.5,0,2.3,0.8,2.3,2.3c0,1.4-0.9,2.3-2.3,2.3c-1.3,0-2.3-1-2.3-2.3C118.6,76.9,119.5,76,120.9,76z"
			/>
	</g>
</g>
</svg>
