<svg width="17" height="17" viewBox="0 0 17 17" fill="none" xmlns="http://www.w3.org/2000/svg">
<path d="M11.8383 2.39604L2.1721 8.52312L1.34082 7.21166V6.08158C1.34082 5.67016 1.54912 5.28669 1.89426 5.06273L7.51326 1.41668C8.36932 0.861186 9.47202 0.8611 10.3282 1.41646L11.8383 2.39604Z" fill="url(#paint0_linear_1967_29338)"/>
<path d="M10.2408 1.36328C10.2698 1.38056 10.2987 1.39846 10.3272 1.41698L14.7124 4.26156L3.83939 11.1536L2.1709 8.52138L10.1507 3.45347C10.9065 2.97346 10.9396 1.89359 10.2408 1.36328Z" fill="url(#paint1_linear_1967_29338)"/>
<path d="M10.2408 1.36328C10.2698 1.38056 10.2987 1.39846 10.3272 1.41698L14.7124 4.26156L3.83939 11.1536L2.1709 8.52138L10.1507 3.45347C10.9065 2.97346 10.9396 1.89359 10.2408 1.36328Z" fill="url(#paint2_linear_1967_29338)" fill-opacity="0.2"/>
<path d="M8.17986 12.4686L3.8418 11.1527L13.0649 5.30617C13.8418 4.81381 13.8398 3.67978 13.0612 3.19016L13.0197 3.16406L13.1393 3.23846L15.9464 5.05934C16.2917 5.2833 16.5 5.6668 16.5 6.07832V7.17205L8.17986 12.4686Z" fill="url(#paint3_linear_1967_29338)"/>
<path d="M8.17986 12.4686L3.8418 11.1527L13.0649 5.30617C13.8418 4.81381 13.8398 3.67978 13.0612 3.19016L13.0197 3.16406L13.1393 3.23846L15.9464 5.05934C16.2917 5.2833 16.5 5.6668 16.5 6.07832V7.17205L8.17986 12.4686Z" fill="url(#paint4_linear_1967_29338)" fill-opacity="0.2"/>
<path d="M10.3154 1.41646C9.46042 0.8611 8.35929 0.861186 7.50441 1.41668L1.89347 5.06273C1.54882 5.28669 1.34082 5.67016 1.34082 6.08158V6.13688C1.35434 6.54986 1.57138 6.93054 1.92193 7.15191L8.89863 11.5566L15.8929 7.1586C16.2562 6.93017 16.4766 6.53083 16.4766 6.1013V7.17275L16.4767 6.07893C16.4767 5.66743 16.2687 5.28391 15.9239 5.05995L10.3154 1.41646Z" fill="url(#paint5_radial_1967_29338)"/>
<path d="M7.67819 16.1467H13.8666C15.32 16.1467 16.4982 14.9684 16.4982 13.5151V6.09961C16.4982 6.52914 16.2774 6.92848 15.9137 7.15692L6.70898 12.9366C6.21246 13.2483 5.9111 13.7936 5.91113 14.3798C5.91122 15.3556 6.70233 16.1467 7.67819 16.1467Z" fill="url(#paint6_linear_1967_29338)"/>
<path d="M7.67819 16.1467H13.8666C15.32 16.1467 16.4982 14.9684 16.4982 13.5151V6.09961C16.4982 6.52914 16.2774 6.92848 15.9137 7.15692L6.70898 12.9366C6.21246 13.2483 5.9111 13.7936 5.91113 14.3798C5.91122 15.3556 6.70233 16.1467 7.67819 16.1467Z" fill="url(#paint7_radial_1967_29338)" fill-opacity="0.4"/>
<path d="M7.67819 16.1467H13.8666C15.32 16.1467 16.4982 14.9684 16.4982 13.5151V6.09961C16.4982 6.52914 16.2774 6.92848 15.9137 7.15692L6.70898 12.9366C6.21246 13.2483 5.9111 13.7936 5.91113 14.3798C5.91122 15.3556 6.70233 16.1467 7.67819 16.1467Z" fill="url(#paint8_radial_1967_29338)" fill-opacity="0.5"/>
<path d="M10.1949 16.1477H3.97249C2.51906 16.1477 1.34082 14.9695 1.34082 13.516V6.0957C1.34082 6.52439 1.56079 6.92315 1.92345 7.15175L11.119 12.9491C11.6224 13.2664 11.9278 13.8199 11.9277 14.415C11.9276 15.372 11.1518 16.1477 10.1949 16.1477Z" fill="url(#paint9_radial_1967_29338)"/>
<path d="M10.1949 16.1477H3.97249C2.51906 16.1477 1.34082 14.9695 1.34082 13.516V6.0957C1.34082 6.52439 1.56079 6.92315 1.92345 7.15175L11.119 12.9491C11.6224 13.2664 11.9278 13.8199 11.9277 14.415C11.9276 15.372 11.1518 16.1477 10.1949 16.1477Z" fill="url(#paint10_linear_1967_29338)"/>
<path d="M5.86863 8.14453H1.86847C1.11269 8.14453 0.5 8.75722 0.5 9.513V13.5131C0.5 14.269 1.11269 14.8816 1.86847 14.8816H5.86863C6.62441 14.8816 7.2371 14.269 7.2371 13.5131V9.513C7.2371 8.75722 6.62441 8.14453 5.86863 8.14453Z" fill="url(#paint11_radial_1967_29338)"/>
<path d="M5.86863 8.14453H1.86847C1.11269 8.14453 0.5 8.75722 0.5 9.513V13.5131C0.5 14.269 1.11269 14.8816 1.86847 14.8816H5.86863C6.62441 14.8816 7.2371 14.269 7.2371 13.5131V9.513C7.2371 8.75722 6.62441 8.14453 5.86863 8.14453Z" fill="url(#paint12_radial_1967_29338)" fill-opacity="0.5"/>
<path d="M3.84978 13.45C3.2927 13.45 2.83539 13.2757 2.4778 12.9272C2.1202 12.5788 1.94141 12.1239 1.94141 11.5628C1.94141 10.9703 2.12291 10.491 2.48588 10.1251C2.84888 9.75917 3.32415 9.57617 3.91175 9.57617C4.46702 9.57617 4.91895 9.7513 5.26756 10.1016C5.61796 10.4518 5.79317 10.9136 5.79317 11.4869C5.79317 12.076 5.61166 12.5508 5.2487 12.9116C4.8875 13.2706 4.42121 13.45 3.84978 13.45ZM3.86594 12.7103C4.16961 12.7103 4.414 12.6066 4.5991 12.3993C4.78417 12.1918 4.87672 11.9034 4.87672 11.534C4.87672 11.1489 4.78687 10.8492 4.60719 10.6348C4.42748 10.4205 4.1876 10.3133 3.8875 10.3133C3.57844 10.3133 3.32954 10.424 3.14086 10.6453C2.9522 10.8649 2.85785 11.1559 2.85785 11.5183C2.85785 11.886 2.9522 12.177 3.14086 12.3913C3.32954 12.604 3.57123 12.7103 3.86594 12.7103Z" fill="white"/>
<path d="M3.84739 13.5047C3.29246 13.5047 2.83687 13.3258 2.48064 12.9678C2.12441 12.6097 1.94629 12.1425 1.94629 11.5661C1.94629 10.9575 2.12709 10.4652 2.4887 10.0893C2.85029 9.71336 3.32378 9.52539 3.90912 9.52539C4.46227 9.52539 4.91247 9.70531 5.25977 10.0651C5.60884 10.4249 5.78338 10.8993 5.78338 11.4882C5.78338 12.0933 5.60257 12.581 5.24095 12.9517C4.88114 13.3203 4.41663 13.5047 3.84739 13.5047ZM3.86346 12.7448C4.16601 12.7448 4.40947 12.6384 4.59385 12.4254C4.77824 12.2122 4.87042 11.9161 4.87042 11.5365C4.87042 11.141 4.78089 10.8331 4.6019 10.6129C4.42291 10.3927 4.1839 10.2826 3.88499 10.2826C3.57706 10.2826 3.32913 10.3963 3.14116 10.6236C2.95323 10.8492 2.85924 11.1481 2.85924 11.5205C2.85924 11.8981 2.95323 12.1971 3.14116 12.4173C3.32913 12.6357 3.5699 12.7448 3.86346 12.7448Z" fill="white"/>
<defs>
<linearGradient id="paint0_linear_1967_29338" x1="3.0198" y1="7.87913" x2="11.8383" y2="2.40946" gradientUnits="userSpaceOnUse">
<stop stop-color="#20A7FA"/>
<stop offset="0.4" stop-color="#3BD5FF"/>
<stop offset="1" stop-color="#C4B0FF"/>
</linearGradient>
<linearGradient id="paint1_linear_1967_29338" x1="6.05408" y1="9.74475" x2="10.9633" y2="1.88392" gradientUnits="userSpaceOnUse">
<stop stop-color="#165AD9"/>
<stop offset="0.5008" stop-color="#1880E5"/>
<stop offset="1" stop-color="#8587FF"/>
</linearGradient>
<linearGradient id="paint2_linear_1967_29338" x1="9.63457" y1="9.85166" x2="4.18416" y2="5.41061" gradientUnits="userSpaceOnUse">
<stop offset="0.236946" stop-color="#448AFF" stop-opacity="0"/>
<stop offset="0.792113" stop-color="#0032B1"/>
</linearGradient>
<linearGradient id="paint3_linear_1967_29338" x1="8.94334" y1="11.5608" x2="17.557" y2="6.04808" gradientUnits="userSpaceOnUse">
<stop stop-color="#1A43A6"/>
<stop offset="0.492267" stop-color="#2052CB"/>
<stop offset="1" stop-color="#5F20CB"/>
</linearGradient>
<linearGradient id="paint4_linear_1967_29338" x1="11.3749" y1="11.2313" x2="6.14075" y2="6.70205" gradientUnits="userSpaceOnUse">
<stop stop-color="#0045B9" stop-opacity="0"/>
<stop offset="0.669859" stop-color="#0D1F69"/>
</linearGradient>
<radialGradient id="paint5_radial_1967_29338" cx="0" cy="0" r="1" gradientUnits="userSpaceOnUse" gradientTransform="translate(8.90931 1.33276) rotate(-90) scale(11.37 12.2887)">
<stop offset="0.568182" stop-color="#275FF0" stop-opacity="0"/>
<stop offset="0.992424" stop-color="#002177"/>
</radialGradient>
<linearGradient id="paint6_linear_1967_29338" x1="16.4982" y1="11.0684" x2="8.85736" y2="11.0684" gradientUnits="userSpaceOnUse">
<stop stop-color="#4DC4FF"/>
<stop offset="0.196145" stop-color="#0FAFFF"/>
</linearGradient>
<radialGradient id="paint7_radial_1967_29338" cx="0" cy="0" r="1" gradientUnits="userSpaceOnUse" gradientTransform="translate(10.6432 14.4237) rotate(-45) scale(4.87262)">
<stop offset="0.259477" stop-color="#0060D1"/>
<stop offset="0.908166" stop-color="#0383F1" stop-opacity="0"/>
</radialGradient>
<radialGradient id="paint8_radial_1967_29338" cx="0" cy="0" r="1" gradientUnits="userSpaceOnUse" gradientTransform="translate(3.2907 18.0283) rotate(-52.6577) scale(16.5402 14.9566)">
<stop offset="0.732317" stop-color="#F4A7F7" stop-opacity="0"/>
<stop offset="1" stop-color="#F4A7F7"/>
</radialGradient>
<radialGradient id="paint9_radial_1967_29338" cx="0" cy="0" r="1" gradientUnits="userSpaceOnUse" gradientTransform="translate(6.63432 10.0547) rotate(123.339) scale(8.727 22.6476)">
<stop stop-color="#49DEFF"/>
<stop offset="0.724349" stop-color="#29C3FF"/>
</radialGradient>
<linearGradient id="paint10_linear_1967_29338" x1="0.270595" y1="14.4087" x2="7.62732" y2="14.4034" gradientUnits="userSpaceOnUse">
<stop offset="0.205882" stop-color="#6CE0FF"/>
<stop offset="0.535" stop-color="#50D5FF" stop-opacity="0"/>
</linearGradient>
<radialGradient id="paint11_radial_1967_29338" cx="0" cy="0" r="1" gradientUnits="userSpaceOnUse" gradientTransform="translate(0.47596 8.40365) rotate(46.9242) scale(8.86848)">
<stop offset="0.038877" stop-color="#0091FF"/>
<stop offset="0.919119" stop-color="#183DAD"/>
</radialGradient>
<radialGradient id="paint12_radial_1967_29338" cx="0" cy="0" r="1" gradientUnits="userSpaceOnUse" gradientTransform="translate(3.86855 12.2474) rotate(90) scale(4.71598 5.43971)">
<stop offset="0.557796" stop-color="#0FA5F7" stop-opacity="0"/>
<stop offset="1" stop-color="#74C6FF"/>
</radialGradient>
</defs>
</svg>
